<?xml version="1.0" standalone="no"?>
<!DOCTYPE svg PUBLIC "-//W3C//DTD SVG 20010904//EN"
 "http://www.w3.org/TR/2001/REC-SVG-20010904/DTD/svg10.dtd">
<svg version="1.0" xmlns="http://www.w3.org/2000/svg"
 width="1920.000000pt" height="1920.000000pt" viewBox="0 0 1920.000000 1920.000000"
 preserveAspectRatio="xMidYMid meet">
<metadata>
Created by potrace 1.14, written by Peter Selinger 2001-2017
</metadata>
<g transform="translate(0.000000,1920.000000) scale(0.100000,-0.100000)"
fill="#000000" stroke="none">
<path d="M0 9600 l0 -2880 1475 0 1474 0 -2 238 c-2 219 -3 237 -19 236 -10
-1 -18 2 -18 8 0 5 -6 5 -17 -1 -10 -5 -26 -5 -40 0 -13 5 -25 4 -28 -2 -4 -5
-11 -7 -16 -3 -5 3 -40 5 -77 5 -37 -1 -76 -1 -87 -1 -11 1 -24 1 -30 1 -11 0
-111 -1 -160 -1 -8 0 -22 0 -30 0 -8 0 -22 0 -30 0 -8 0 -22 0 -30 0 -8 0 -21
0 -27 0 -20 -1 -151 -1 -173 0 -22 1 -19 1 -91 -1 -28 -1 -55 1 -60 4 -6 3
-16 2 -24 -3 -7 -4 -24 -4 -36 0 -14 6 -26 5 -29 0 -3 -6 -15 -6 -30 0 -15 6
-27 6 -30 -1 -4 -5 -11 -7 -16 -3 -5 3 -40 5 -77 5 -37 -1 -76 -1 -87 -1 -11
1 -24 1 -30 1 -11 0 -111 -1 -160 -1 -8 0 -22 0 -30 0 -8 0 -22 0 -30 0 -8 0
-22 0 -30 0 -8 0 -23 0 -32 0 -10 0 -43 -1 -73 -1 -30 0 -61 0 -67 0 -7 1 -20
1 -28 1 -8 0 -22 0 -30 0 -8 0 -22 0 -30 0 -8 0 -22 0 -30 0 -8 0 -22 0 -30 0
-8 0 -21 0 -27 0 -20 -1 -151 -1 -173 0 -22 1 -19 1 -91 -1 -28 -1 -55 1 -60
4 -6 3 -16 2 -24 -3 -7 -4 -24 -4 -36 0 -14 6 -26 5 -29 0 -3 -5 -18 -5 -35 0
-19 5 -30 5 -30 -1 0 -6 -5 -7 -11 -3 -6 3 -28 6 -50 6 -23 -1 -39 4 -40 11
-5 90 -2 987 3 987 4 0 5 7 1 16 -8 22 -9 1904 -1 1904 4 0 5 7 1 16 -9 24 -9
1904 0 1904 5 0 5 5 1 11 -4 7 -7 106 -7 220 l0 209 -239 0 -238 0 0 -2880z"/>
<path d="M5298 12475 c-1 -1 -34 -6 -73 -9 -101 -9 -135 -13 -207 -26 -34 -7
-74 -14 -88 -16 -217 -40 -525 -149 -754 -268 -156 -82 -404 -242 -414 -268
-2 -4 -10 -8 -17 -8 -7 0 -15 -3 -17 -8 -1 -4 -25 -25 -52 -47 -27 -22 -59
-49 -71 -60 -188 -176 -279 -273 -365 -390 -25 -33 -48 -62 -51 -65 -9 -7
-149 -217 -149 -224 0 -3 -10 -20 -23 -39 -21 -31 -110 -207 -151 -299 -58
-130 -147 -403 -171 -524 -10 -54 -44 -259 -51 -309 -8 -65 -9 -558 -1 -610 4
-22 9 -65 13 -95 3 -30 7 -62 9 -71 2 -9 6 -32 9 -50 12 -68 18 -96 42 -194
14 -55 27 -107 29 -115 2 -8 13 -39 24 -67 10 -29 17 -53 14 -53 -3 0 -1 -6 5
-12 6 -7 11 -17 12 -23 1 -5 6 -20 11 -33 5 -13 9 -26 9 -29 0 -3 7 -21 16
-41 9 -21 20 -46 25 -57 70 -164 219 -435 266 -483 7 -7 13 -17 13 -22 0 -5 6
-15 13 -22 6 -7 37 -47 68 -88 114 -151 212 -257 386 -416 76 -70 265 -213
332 -252 25 -14 48 -29 51 -33 13 -16 243 -136 405 -210 64 -29 319 -115 368
-123 16 -3 43 -9 60 -15 38 -12 247 -51 297 -56 19 -2 60 -7 90 -11 70 -11
474 -11 560 -2 134 15 239 31 280 43 8 2 31 7 50 10 19 3 62 13 95 21 33 9 69
18 80 20 23 4 220 70 250 84 11 5 70 30 130 56 115 50 123 54 245 123 41 24
89 50 105 59 17 9 32 19 35 22 3 3 32 23 65 45 68 46 63 42 170 127 102 80
130 105 229 203 73 71 109 111 196 211 75 86 173 225 246 348 30 50 59 98 64
106 15 26 103 204 105 215 2 6 14 34 29 64 14 30 26 59 26 64 0 5 6 23 14 40
14 30 58 161 62 182 1 6 9 36 18 67 10 31 19 67 22 80 2 13 6 34 9 48 4 14 8
36 11 50 2 14 7 39 11 55 4 17 7 32 8 35 1 3 4 32 9 65 4 33 9 71 11 85 22
140 23 519 1 676 -3 22 -8 59 -11 84 -3 25 -8 56 -10 70 -3 14 -7 36 -10 50
-8 48 -37 175 -43 190 -3 8 -4 20 -3 27 1 6 -3 14 -9 18 -5 3 -10 15 -10 27 0
22 -70 229 -101 295 -10 24 -19 45 -19 48 0 13 -70 150 -138 270 -94 167 -95
169 -109 178 -7 4 -13 13 -13 19 0 9 -78 121 -115 165 -5 7 -16 19 -23 28 -8
9 -37 44 -65 78 -90 108 -286 296 -407 390 -236 184 -565 364 -806 442 -27 9
-58 20 -69 24 -11 5 -38 14 -60 20 -22 6 -71 19 -110 30 -61 17 -110 28 -204
46 -14 2 -60 9 -103 15 -43 6 -92 13 -110 16 -36 6 -494 15 -500 9z m324 -480
c68 -3 134 -7 147 -10 14 -2 47 -7 75 -10 28 -3 58 -8 66 -10 8 -2 30 -7 48
-10 18 -3 61 -12 95 -21 98 -24 114 -28 137 -37 8 -3 40 -13 70 -22 81 -26
232 -91 340 -147 100 -52 212 -117 220 -128 3 -3 28 -21 55 -40 146 -98 399
-337 490 -464 11 -16 25 -33 30 -40 15 -16 88 -117 100 -137 6 -10 34 -57 62
-106 29 -48 53 -94 53 -100 0 -7 3 -13 8 -13 4 0 13 -15 21 -32 27 -62 73
-163 82 -180 5 -10 9 -24 9 -31 0 -8 7 -28 15 -45 9 -17 18 -39 20 -49 2 -10
8 -30 14 -46 6 -15 13 -38 16 -50 2 -12 9 -40 15 -62 6 -22 13 -51 16 -65 3
-14 9 -43 14 -65 5 -22 12 -62 16 -90 3 -27 8 -52 9 -55 8 -14 19 -199 19
-330 0 -228 -14 -341 -79 -630 -1 -8 -16 -53 -31 -100 -15 -47 -29 -87 -29
-90 -2 -8 -16 -41 -36 -85 -10 -23 -21 -53 -24 -68 -4 -15 -11 -27 -16 -27 -5
0 -9 -7 -9 -15 0 -8 -8 -29 -18 -47 -10 -18 -42 -77 -72 -130 -29 -54 -57 -98
-62 -98 -5 0 -7 -4 -3 -9 3 -5 1 -13 -5 -16 -6 -4 -23 -25 -37 -48 -94 -149
-315 -386 -498 -532 -64 -51 -268 -185 -282 -185 -7 0 -13 -4 -13 -8 0 -25
-403 -194 -542 -228 -10 -2 -26 -6 -35 -9 -46 -12 -212 -45 -248 -50 -22 -2
-60 -7 -85 -10 -25 -3 -86 -8 -137 -10 -50 -2 -95 -5 -100 -6 -4 -1 -10 -1
-13 0 -3 1 -54 4 -115 6 -120 5 -196 11 -235 19 -13 3 -42 8 -65 11 -57 8
-188 36 -200 44 -5 3 -20 7 -32 9 -24 3 -179 53 -228 73 -16 7 -32 13 -35 14
-57 19 -219 101 -320 162 -133 80 -144 87 -150 93 -3 3 -43 34 -88 69 -116 88
-209 174 -325 301 -64 70 -147 177 -147 190 0 5 -4 10 -9 10 -7 0 -66 87 -138
206 -16 26 -98 191 -116 234 -8 19 -22 51 -31 71 -50 113 -123 382 -140 519
-3 19 -7 55 -10 80 -4 25 -8 65 -11 90 -5 52 -6 350 -1 395 2 17 7 59 11 95 6
58 22 152 40 235 5 24 33 128 59 220 15 52 83 219 124 305 155 321 417 644
691 850 18 14 43 33 54 43 87 71 392 242 480 269 20 6 37 14 37 18 0 4 12 10
28 13 15 3 38 10 52 15 14 5 27 10 30 10 3 0 23 7 45 16 44 17 257 71 320 81
128 20 185 26 289 30 54 2 100 6 103 9 3 3 9 3 14 0 4 -2 63 -7 131 -9z"/>
<path d="M9162 12057 c1 -233 -2 -430 -6 -436 -4 -6 -4 -11 1 -11 9 0 9 -281
0 -305 -4 -8 -3 -15 1 -15 8 0 7 -922 -1 -945 -4 -8 -3 -15 1 -15 8 0 7 -282
-1 -305 -4 -8 -3 -15 1 -15 8 0 7 -922 -1 -945 -4 -8 -3 -15 1 -15 8 0 7
-2203 -2 -2225 -3 -8 -2 -15 2 -15 5 0 7 -21 6 -46 l-2 -45 856 4 c471 3 880
7 907 10 164 17 259 28 265 32 3 1 32 6 65 10 32 3 62 8 65 10 3 2 23 6 44 9
22 4 76 16 120 27 45 12 90 23 101 24 11 1 20 4 20 5 0 1 9 4 20 5 36 5 309
97 350 118 22 11 40 19 40 18 0 -13 296 129 410 196 96 57 326 214 361 248 6
5 38 33 70 60 73 62 237 226 284 284 19 24 40 48 45 55 6 6 34 43 63 81 28 39
55 75 59 80 5 6 24 35 43 65 19 30 39 58 45 62 5 4 6 8 2 8 -5 0 0 12 11 28
78 111 234 477 267 627 2 11 15 65 29 120 13 55 29 134 36 175 6 41 14 89 16
105 37 232 31 711 -12 905 -3 14 -7 39 -9 55 -13 122 -98 418 -161 562 -8 17
-14 38 -14 47 0 9 -4 16 -10 16 -5 0 -10 5 -10 11 0 10 -76 169 -108 224 -64
111 -203 318 -232 345 -3 3 -34 39 -69 80 -113 131 -228 240 -406 383 -41 33
-192 135 -243 165 -35 20 -78 45 -95 56 -120 71 -490 236 -567 251 -3 1 -50
15 -105 32 -55 17 -140 41 -190 53 -49 11 -101 24 -115 27 -14 3 -34 8 -45 9
-11 2 -49 9 -85 15 -36 6 -76 13 -90 14 -14 2 -41 6 -60 9 -19 3 -62 8 -96 11
-33 4 -74 9 -90 12 -16 3 -423 7 -906 10 l-876 4 0 -424z m608 -59 c0 -4 14
-3 30 2 17 5 30 6 30 2 0 -4 33 -6 72 -4 40 1 78 3 83 3 6 0 19 0 30 -1 11 0
43 0 71 1 28 1 55 -1 60 -4 6 -3 16 -2 24 3 7 4 24 4 36 0 14 -6 26 -5 29 0 3
6 15 6 30 0 15 -6 27 -6 30 1 4 5 11 7 16 3 8 -4 68 -6 149 -3 8 0 24 0 35 -1
11 0 43 -1 70 0 50 0 72 0 100 0 8 0 22 0 30 0 8 0 22 0 30 0 8 0 21 0 28 -1
6 0 21 0 32 1 67 4 324 -14 387 -26 15 -3 42 -7 60 -9 18 -3 44 -6 58 -9 14
-2 45 -7 70 -11 25 -4 53 -11 63 -16 9 -6 17 -8 17 -5 0 3 33 -4 73 -16 39
-11 79 -21 87 -23 8 -2 15 -4 15 -5 0 -1 7 -3 15 -5 105 -23 544 -226 558
-257 2 -5 10 -8 18 -8 8 0 14 -4 14 -10 0 -5 6 -10 13 -10 8 0 22 -9 32 -20
10 -11 22 -20 27 -20 8 0 63 -41 158 -119 50 -41 233 -223 268 -267 62 -77
172 -233 172 -243 0 -6 4 -11 9 -11 19 0 206 -402 225 -485 2 -5 8 -30 15 -55
7 -25 13 -46 12 -47 0 -2 6 -18 14 -37 8 -18 12 -36 9 -39 -3 -3 -1 -14 5 -25
6 -11 13 -38 15 -60 2 -22 6 -44 9 -49 3 -5 8 -31 11 -59 3 -27 7 -58 9 -69
14 -62 21 -205 21 -390 0 -220 -8 -331 -30 -440 -3 -11 -6 -36 -9 -55 -3 -30
-8 -52 -29 -140 -23 -92 -69 -245 -86 -285 -5 -11 -23 -54 -41 -95 -73 -173
-177 -350 -288 -490 -112 -142 -292 -314 -441 -423 -115 -83 -333 -204 -477
-265 -148 -62 -409 -137 -551 -158 -20 -3 -44 -7 -52 -9 -60 -16 -330 -36
-455 -35 -48 1 -102 1 -127 -1 -7 0 -22 0 -33 1 -11 0 -42 1 -70 0 -50 0 -72
0 -100 0 -8 0 -22 0 -30 0 -8 0 -22 0 -30 0 -8 0 -22 0 -30 0 -8 0 -23 0 -32
0 -10 0 -43 -1 -73 -1 -30 0 -61 0 -67 0 -7 1 -20 1 -28 1 -8 0 -22 0 -30 0
-8 0 -22 0 -30 0 -8 0 -22 0 -30 0 -8 0 -22 0 -30 0 -8 0 -21 0 -27 0 -7 -1
-42 -1 -78 -1 -36 1 -72 1 -80 0 -8 0 -24 0 -35 0 -11 1 -42 1 -69 1 -26 0
-51 2 -55 4 -5 3 -7 4776 -2 4796 2 8 71 6 71 -2z"/>
<path d="M16103 12021 c-123 -246 -223 -453 -223 -459 0 -6 -3 -12 -7 -14 -8
-3 -152 -291 -154 -305 0 -5 -5 -13 -10 -19 -13 -15 -102 -195 -105 -212 -1
-7 -7 -19 -13 -26 -6 -7 -26 -44 -45 -82 -92 -188 -225 -453 -241 -484 -11
-19 -19 -37 -20 -40 0 -3 -263 -531 -584 -1175 -321 -643 -624 -1253 -674
-1355 -50 -102 -95 -188 -100 -191 -5 -3 -7 -8 -6 -10 2 -2 -90 -191 -204
-420 -114 -229 -207 -422 -207 -428 0 -6 -4 -11 -9 -11 -7 0 -31 -51 -31 -66
0 -2 121 -4 269 -4 l268 0 212 425 c116 234 212 428 212 432 1 5 9 19 18 33 9
14 30 54 46 90 16 36 34 72 40 80 7 8 18 31 25 50 7 19 22 47 31 61 10 14 16
29 12 33 -3 3 -1 6 5 6 7 0 11 3 10 8 -1 7 51 117 82 172 8 14 15 27 15 30 2
13 71 145 77 148 5 2 8 8 8 13 0 15 273 563 282 567 4 2 8 9 8 15 0 17 91 201
104 209 6 4 8 8 3 8 -9 0 73 162 87 172 6 4 8 8 4 8 -8 0 1024 2076 1041 2093
6 6 249 -466 252 -491 0 -4 6 -13 11 -20 10 -11 59 -108 63 -122 0 -3 19 -39
40 -80 21 -41 39 -77 40 -80 0 -3 315 -635 699 -1405 383 -770 815 -1637 959
-1927 l262 -527 273 -1 272 0 -64 128 c-229 458 -721 1448 -721 1452 0 3 -7
16 -15 30 -22 39 -170 339 -170 345 0 3 -4 11 -10 18 -8 10 -266 526 -384 767
-15 30 -31 62 -36 70 -8 14 -1039 2085 -1233 2480 -45 91 -86 168 -90 171 -5
3 -8 9 -7 13 2 10 -132 276 -139 276 -3 -1 -106 -202 -228 -449z"/>
</g>
</svg>
