<svg width="120" height="36" viewBox="0 0 120 36" fill="none" xmlns="http://www.w3.org/2000/svg">
<g id="Vector">
<path fill-rule="evenodd" clip-rule="evenodd" d="M102.075 0L84.1494 36H87.5438L102.075 6.81718L116.606 36H120L102.075 0Z" fill="#333333"/>
<path d="M0 0V36H18.4232V33H2.98755V0H0Z" fill="#333333"/>
<path fill-rule="evenodd" clip-rule="evenodd" d="M52.2822 18C52.2822 27.9411 44.2567 36 34.3568 36C24.457 36 16.4315 27.9411 16.4315 18C16.4315 8.05887 24.457 0 34.3568 0C44.2567 0 52.2822 8.05887 52.2822 18ZM49.2946 18C49.2946 26.2843 42.6067 33 34.3568 33C26.107 33 19.4191 26.2843 19.4191 18C19.4191 9.71573 26.107 3 34.3568 3C42.6067 3 49.2946 9.71573 49.2946 18Z" fill="#333333"/>
<path fill-rule="evenodd" clip-rule="evenodd" d="M80.3596 31.1495C83.9135 28.078 86.1411 23.6201 86.1411 18C86.1411 12.3799 83.9135 7.92196 80.3596 4.8505C76.7841 1.76035 71.7754 0 66.1374 0H57.2614V36H66.1374C71.7754 36 76.7841 34.2397 80.3596 31.1495ZM78.3615 28.9579C81.0953 26.3984 82.8088 22.6835 82.8088 18C82.8088 13.3165 81.0953 9.60164 78.3615 7.04208C75.6111 4.46695 71.7583 3 67.4213 3H60.5937V33H67.4213C71.7583 33 75.6111 31.5331 78.3615 28.9579Z" fill="#333333"/>
</g>
</svg>
